HIERARCHY
ROOT Hips
{
	OFFSET -3.958830 18.904000 13.208200
	CHANNELS 6 Xposition Yposition Zposition Zrotation Yrotation Xrotation 
	JOINT LHipJoint
	{
		OFFSET 0.000000 0.000000 0.000000
		CHANNELS 3 Zrotation Yrotation Xrotation
		JOINT LeftUpLeg
		{
			OFFSET 1.800000 -1.400000 0.085000
			CHANNELS 3 Zrotation Yrotation Xrotation
			JOINT LeftLeg
			{
				OFFSET 2.215000 -6.000000 0.000000
				CHANNELS 3 Zrotation Yrotation Xrotation
				JOINT LeftFoot
				{
					OFFSET 2.500000 -6.900000 0.000000
					CHANNELS 3 Zrotation Yrotation Xrotation
					JOINT LeftToeBase
					{
						OFFSET 0.200000 -0.500000 1.950000
						CHANNELS 3 Zrotation Yrotation Xrotation
						End Site
						{
							OFFSET 0.000000 0.000000 0.000000
						}
					}
				}
			}
		}
	}
	JOINT RHipJoint
	{
		OFFSET 0.000000 0.000000 0.000000
		CHANNELS 3 Zrotation Yrotation Xrotation
		JOINT RightUpLeg
		{
			OFFSET -1.800000 -1.400000 0.085000
			CHANNELS 3 Zrotation Yrotation Xrotation
			JOINT RightLeg
			{
				OFFSET -2.215000 -6.000000 0.000000
				CHANNELS 3 Zrotation Yrotation Xrotation
				JOINT RightFoot
				{
					OFFSET -2.500000 -6.900000 0.000000
					CHANNELS 3 Zrotation Yrotation Xrotation
					JOINT RightToeBase
					{
						OFFSET -0.200000 -0.500000 1.950000
						CHANNELS 3 Zrotation Yrotation Xrotation
						End Site
						{
							OFFSET 0.000000 0.000000 0.000000
						}
					}
				}
			}
		}
	}
	JOINT LowerBack
	{
		OFFSET 0.000000 0.000000 0.000000
		CHANNELS 3 Zrotation Yrotation Xrotation
		JOINT Spine
		{
			OFFSET -0.087000 1.940000 -0.288900
			CHANNELS 3 Zrotation Yrotation Xrotation
			JOINT Spine1
			{
				OFFSET 0.000000 1.950000 0.060000
				CHANNELS 3 Zrotation Yrotation Xrotation
				JOINT Neck
				{
					OFFSET 0.000000 0.000000 0.000000
					CHANNELS 3 Zrotation Yrotation Xrotation
					JOINT Neck1
					{
						OFFSET 0.000000 1.600000 0.340000
						CHANNELS 3 Zrotation Yrotation Xrotation
						JOINT Head
						{
							OFFSET 0.000000 1.667000 -0.240000
							CHANNELS 3 Zrotation Yrotation Xrotation
							End Site
							{
								OFFSET 0.000000 0.000000 0.000000
							}
						}
					}
				}
				JOINT LeftShoulder
				{
					OFFSET 0.000000 0.000000 0.000000
					CHANNELS 3 Zrotation Yrotation Xrotation
					JOINT LeftArm
					{
						OFFSET 2.700000 1.550000 -0.730000
						CHANNELS 3 Zrotation Yrotation Xrotation
						JOINT LeftForeArm
						{
							OFFSET 5.450000 0.000000 0.000000
							CHANNELS 3 Zrotation Yrotation Xrotation
							JOINT LeftHand
							{
								OFFSET 3.450000 0.000000 0.000000
								CHANNELS 3 Zrotation Yrotation Xrotation
								JOINT LeftHandIndex1
								{
									OFFSET 0.750000 0.000000 0.000000
									CHANNELS 3 Zrotation Yrotation Xrotation
									End Site
									{
										OFFSET 0.000000 0.000000 0.000000
									}
								}
							}
						}
					}
				}
				JOINT RightShoulder
				{
					OFFSET 0.000000 0.000000 0.000000
					CHANNELS 3 Zrotation Yrotation Xrotation
					JOINT RightArm
					{
						OFFSET -2.700000 1.550000 -0.730000
						CHANNELS 3 Zrotation Yrotation Xrotation
						JOINT RightForeArm
						{
							OFFSET -5.450000 0.000000 0.000000
							CHANNELS 3 Zrotation Yrotation Xrotation
							JOINT RightHand
							{
								OFFSET -3.450000 0.000000 0.000000
								CHANNELS 3 Zrotation Yrotation Xrotation
								JOINT RightHandIndex1
								{
									OFFSET -0.750000 0.000000 0.000000
									CHANNELS 3 Zrotation Yrotation Xrotation
									End Site
									{
										OFFSET 0.000000 0.000000 0.000000
									}
								}
							}
						}
					}
				}
			}
		}
	}
}
MOTION
Frames: 4
Frame Time: 0.016667
-2.860240 17.513320 -3.045040 3.374409 12.247129 -1.932634 -15.483050 10.437267 5.532974 35.504510 -8.371229 -18.297970 -42.335141 15.391777 17.388471 -0.270429 12.419790 0.667611 -0.162190 -0.450240 -0.560860 18.576869 -9.027375 1.049526 -34.223214 -6.224551 -9.450392 -0.935501 -6.601075 8.337757 -0.327546 -6.225812 1.950140 0.412720 2.157070 1.080350 -3.539949 -2.598617 -7.855557 22.449764 -5.815590 10.186528 11.218880 -11.279703 20.189653 -7.712911 11.511870 -8.273890 16.329953 -12.809938 17.755696 -11.631510 -7.642010 -1.591920 22.044495 -30.511055 -1.726062 49.202681 -63.724855 -34.601350 101.575782 -46.802416 -50.617592 -6.222953 1.701309 0.268030 1.566860 -0.653180 0.554520 -7.007007 14.441169 6.296870 37.658075 11.275214 -9.880532 -57.553134 -26.909586 11.851884 1.904595 -2.406696 -0.909840 0.973440 0.835550 0.176910 
-2.580440 17.523460 -3.065190 3.596898 16.138750 -0.385288 -15.438906 10.504717 5.057166 32.057987 -8.370078 -18.537666 -38.850668 14.299524 17.518095 -0.610519 12.182340 0.797562 -0.199660 -0.493960 -0.662550 18.558885 -9.122994 1.315299 -34.514217 -5.679541 -6.664876 0.273098 -6.599187 6.057184 -0.296345 -6.766020 1.775068 0.549730 2.465200 1.186480 -3.568612 -2.336494 -7.696710 21.063252 -4.804350 6.547326 16.850259 -11.107167 17.553979 -8.232323 11.883713 -7.556537 17.849491 -14.121256 14.606927 -13.406870 -9.469280 0.640000 26.923682 -23.844719 1.054054 77.638279 -63.365428 -60.590531 97.364428 -38.008914 -42.604706 -6.690843 1.900588 0.086320 1.851070 -0.867670 0.579110 -9.671977 7.400947 2.485208 35.760908 15.457541 -6.910954 -60.785508 -35.067967 19.313099 1.887723 -2.475698 -1.003570 1.088970 0.977820 0.209980 
-2.329640 17.549760 -3.119400 3.871668 18.072596 0.895625 -15.432957 10.751658 4.799104 28.985445 -8.366649 -18.574897 -36.621522 13.427984 17.614063 -0.786102 11.661133 0.911637 -0.035900 -0.225840 -0.560110 18.491270 -9.337360 1.348391 -33.789773 -5.315869 -6.613835 0.075236 -6.450240 6.371028 -0.328972 -6.756982 1.751579 0.727160 2.380210 1.223230 -3.496885 -2.245263 -7.563736 19.808448 -3.058991 5.239165 21.713773 -9.705898 15.514234 -8.715889 12.184209 -7.231951 18.972213 -15.273714 11.931680 -15.640880 -9.743780 -0.597550 30.030166 -22.795138 -0.376493 80.986351 -59.282868 -61.072031 96.904674 -33.041369 -39.117591 -6.760080 2.021256 0.013210 1.888630 -0.806550 0.603530 -11.592297 6.798819 3.677854 35.536213 10.294361 -9.240560 -63.604351 -36.062425 20.630581 1.855411 -2.582891 -0.932280 1.064530 0.880970 0.210750 
-2.138440 17.594800 -3.235970 4.565521 17.180266 -0.448444 -15.404227 10.988198 4.780276 27.035938 -8.718483 -15.819253 -37.898787 13.137371 16.903227 -0.636945 11.481494 0.960625 -0.028860 -0.206870 -0.511700 18.466809 -9.527411 1.165799 -33.339243 -5.749369 -7.564590 -1.032318 -6.582451 8.680036 -0.372287 -6.398888 1.905507 0.632700 2.175530 1.127540 -3.500362 -2.372306 -7.500290 19.901274 -2.407516 7.616584 21.937952 -9.812503 17.237705 -10.069495 12.226035 -8.034971 18.871443 -16.009561 12.326568 -15.137720 -10.121810 -3.438980 27.294594 -28.494188 -3.076276 63.749241 -54.059343 -40.891193 99.156125 -35.389984 -40.873891 -6.447549 2.079133 0.201290 1.674990 -0.630670 0.589990 -6.972130 13.417530 6.303268 31.902776 5.051924 -16.268322 -71.816601 -34.508005 19.688139 1.886615 -2.543076 -0.903430 1.066600 0.811330 0.185110 
